<svg width="20" height="20" viewBox="0 0 20 20" fill="none" xmlns="http://www.w3.org/2000/svg">
<path d="M15.8255 15.8334H15.8334H15.8255ZM15.8255 15.8334C15.3066 16.348 14.3662 16.2198 13.7067 16.2198C12.8972 16.2198 12.5073 16.3782 11.9296 16.9559C11.4377 17.4479 10.7782 18.3334 10.0001 18.3334C9.222 18.3334 8.5625 17.4479 8.07056 16.9559C7.49282 16.3782 7.10299 16.2198 6.29346 16.2198C5.63398 16.2198 4.69356 16.348 4.17466 15.8334C3.65159 15.3147 3.78031 14.3704 3.78031 13.7067C3.78031 12.8679 3.59688 12.4822 2.99956 11.8849C2.11103 10.9964 1.66676 10.5521 1.66675 10.0001C1.66676 9.448 2.11101 9.00375 2.99954 8.11522C3.53275 7.58201 3.78031 7.05365 3.78031 6.29346C3.78031 5.63396 3.65216 4.69353 4.16675 4.17461C4.68544 3.65156 5.62975 3.7803 6.29348 3.7803C7.05364 3.7803 7.58201 3.53275 8.11521 2.99956C9.00375 2.11101 9.448 1.66675 10.0001 1.66675C10.5522 1.66675 10.9964 2.11101 11.8849 2.99956C12.418 3.53264 12.9463 3.7803 13.7067 3.7803C14.3662 3.7803 15.3067 3.65214 15.8256 4.16675C16.3486 4.68544 16.2198 5.62974 16.2198 6.29346C16.2198 7.13223 16.4033 7.51789 17.0006 8.11522C17.8892 9.00375 18.3334 9.448 18.3334 10.0001C18.3334 10.5521 17.8892 10.9964 17.0006 11.8849C16.4032 12.4822 16.2198 12.8679 16.2198 13.7067C16.2198 14.3704 16.3486 15.3147 15.8255 15.8334Z" fill="#181818"/>
<path d="M15.8255 15.8334H15.8334M15.8255 15.8334C15.3066 16.348 14.3662 16.2198 13.7067 16.2198C12.8972 16.2198 12.5073 16.3782 11.9296 16.9559C11.4377 17.4479 10.7782 18.3334 10.0001 18.3334C9.222 18.3334 8.5625 17.4479 8.07056 16.9559C7.49281 16.3782 7.10299 16.2198 6.29346 16.2198C5.63398 16.2198 4.69356 16.348 4.17466 15.8334C3.65159 15.3147 3.78031 14.3704 3.78031 13.7067C3.78031 12.8679 3.59688 12.4822 2.99956 11.8849C2.11103 10.9964 1.66676 10.5521 1.66675 10.0001C1.66676 9.448 2.11101 9.00375 2.99954 8.11522C3.53275 7.58201 3.78031 7.05365 3.78031 6.29346C3.78031 5.63396 3.65216 4.69353 4.16675 4.17461C4.68544 3.65156 5.62975 3.7803 6.29348 3.7803C7.05364 3.7803 7.58201 3.53275 8.11521 2.99956C9.00375 2.11101 9.448 1.66675 10.0001 1.66675C10.5522 1.66675 10.9964 2.11101 11.8849 2.99956C12.418 3.53264 12.9463 3.7803 13.7067 3.7803C14.3662 3.7803 15.3067 3.65214 15.8256 4.16675C16.3486 4.68544 16.2198 5.62974 16.2198 6.29346C16.2198 7.13223 16.4033 7.51789 17.0006 8.11522C17.8892 9.00375 18.3334 9.448 18.3334 10.0001C18.3334 10.5521 17.8892 10.9964 17.0006 11.8849C16.4032 12.4822 16.2198 12.8679 16.2198 13.7067C16.2198 14.3704 16.3486 15.3147 15.8255 15.8334Z" stroke="#181818" stroke-width="1.5"/>
<path d="M7.5 10.7442L9 12.0834L12.5 7.91675" stroke="#D8D8D8" stroke-width="1.5" stroke-linecap="round" stroke-linejoin="round"/>
</svg>
