<svg width="20" height="20" viewBox="0 0 20 20" fill="none" xmlns="http://www.w3.org/2000/svg">
<path d="M15.8253 15.8334H15.8332H15.8253ZM15.8253 15.8334C15.3063 16.348 14.3659 16.2198 13.7064 16.2198C12.8969 16.2198 12.5071 16.3782 11.9293 16.9559C11.4374 17.4479 10.7779 18.3334 9.99984 18.3334C9.22175 18.3334 8.56225 17.4479 8.07031 16.9559C7.49257 16.3782 7.10275 16.2198 6.29322 16.2198C5.63374 16.2198 4.69332 16.348 4.17441 15.8334C3.65135 15.3147 3.78007 14.3704 3.78007 13.7067C3.78007 12.8679 3.59664 12.4822 2.99932 11.8849C2.11079 10.9964 1.66652 10.5521 1.6665 10.0001C1.66651 9.448 2.11077 9.00375 2.9993 8.11522C3.5325 7.58201 3.78007 7.05365 3.78007 6.29346C3.78007 5.63396 3.65191 4.69353 4.1665 4.17461C4.6852 3.65156 5.6295 3.7803 6.29324 3.7803C7.0534 3.7803 7.58177 3.53275 8.11496 2.99956C9.0035 2.11101 9.44775 1.66675 9.99984 1.66675C10.5519 1.66675 10.9962 2.11101 11.8847 2.99956C12.4178 3.53264 12.9461 3.7803 13.7064 3.7803C14.3659 3.7803 15.3064 3.65214 15.8253 4.16675C16.3483 4.68544 16.2196 5.62974 16.2196 6.29346C16.2196 7.13223 16.4031 7.51789 17.0003 8.11522C17.8889 9.00375 18.3332 9.448 18.3332 10.0001C18.3332 10.5521 17.8889 10.9964 17.0003 11.8849C16.403 12.4822 16.2196 12.8679 16.2196 13.7067C16.2196 14.3704 16.3483 15.3147 15.8253 15.8334Z" fill="#64A07C"/>
<path d="M15.8253 15.8334H15.8332M15.8253 15.8334C15.3063 16.348 14.3659 16.2198 13.7064 16.2198C12.8969 16.2198 12.5071 16.3782 11.9293 16.9559C11.4374 17.4479 10.7779 18.3334 9.99984 18.3334C9.22175 18.3334 8.56225 17.4479 8.07031 16.9559C7.49257 16.3782 7.10275 16.2198 6.29322 16.2198C5.63374 16.2198 4.69332 16.348 4.17441 15.8334C3.65135 15.3147 3.78007 14.3704 3.78007 13.7067C3.78007 12.8679 3.59664 12.4822 2.99932 11.8849C2.11079 10.9964 1.66652 10.5521 1.6665 10.0001C1.66651 9.448 2.11077 9.00375 2.9993 8.11522C3.5325 7.58201 3.78007 7.05365 3.78007 6.29346C3.78007 5.63396 3.65191 4.69353 4.1665 4.17461C4.6852 3.65156 5.6295 3.7803 6.29324 3.7803C7.0534 3.7803 7.58177 3.53275 8.11496 2.99956C9.0035 2.11101 9.44775 1.66675 9.99984 1.66675C10.5519 1.66675 10.9962 2.11101 11.8847 2.99956C12.4178 3.53264 12.9461 3.7803 13.7064 3.7803C14.3659 3.7803 15.3064 3.65214 15.8253 4.16675C16.3483 4.68544 16.2196 5.62974 16.2196 6.29346C16.2196 7.13223 16.4031 7.51789 17.0003 8.11522C17.8889 9.00375 18.3332 9.448 18.3332 10.0001C18.3332 10.5521 17.8889 10.9964 17.0003 11.8849C16.403 12.4822 16.2196 12.8679 16.2196 13.7067C16.2196 14.3704 16.3483 15.3147 15.8253 15.8334Z" stroke="#64A07C" stroke-width="1.5"/>
<path d="M7.5 10.7442L9 12.0834L12.5 7.91675" stroke="black" stroke-width="1.5" stroke-linecap="round" stroke-linejoin="round"/>
</svg>
