<svg width="16" height="16" viewBox="0 0 16 16" fill="none" xmlns="http://www.w3.org/2000/svg">
<path d="M1.6665 8.00008C1.6665 5.01452 1.6665 3.52174 2.594 2.59424C3.5215 1.66675 5.01428 1.66675 7.99984 1.66675C10.9854 1.66675 12.4782 1.66675 13.4057 2.59424C14.3332 3.52174 14.3332 5.01452 14.3332 8.00008C14.3332 10.9856 14.3332 12.4784 13.4057 13.4059C12.4782 14.3334 10.9854 14.3334 7.99984 14.3334C5.01428 14.3334 3.5215 14.3334 2.594 13.4059C1.6665 12.4784 1.6665 10.9856 1.6665 8.00008Z" stroke="white" stroke-width="1.5" stroke-linejoin="round"/>
<path d="M11 8C11 9.65687 9.65687 11 8 11C6.34315 11 5 9.65687 5 8C5 6.34315 6.34315 5 8 5C9.65687 5 11 6.34315 11 8Z" stroke="white" stroke-width="1.5"/>
<path d="M11.672 4.33325H11.666" stroke="white" stroke-width="2" stroke-linecap="round" stroke-linejoin="round"/>
</svg>
