<svg width="18" height="19" viewBox="0 0 18 19" fill="none" xmlns="http://www.w3.org/2000/svg">
<path d="M10.4397 2.37023L11.9062 5.32748C12.1062 5.73914 12.6395 6.134 13.0895 6.2096L15.7475 6.65487C17.4473 6.94052 17.8473 8.18391 16.6224 9.4105L14.556 11.494C14.206 11.8468 14.0144 12.5273 14.1227 13.0147L14.7143 15.5938C15.1809 17.6353 14.106 18.4251 12.3146 17.3581L9.82316 15.8711C9.37325 15.6022 8.63166 15.6022 8.17333 15.8711L5.68197 17.3581C3.89883 18.4251 2.81562 17.6269 3.28224 15.5938L3.87384 13.0147C3.98216 12.5273 3.79051 11.8468 3.44055 11.494L1.37411 9.4105C0.157581 8.18391 0.549206 6.94052 2.24901 6.65487L4.90706 6.2096C5.34867 6.134 5.88195 5.73914 6.08192 5.32748L7.54841 2.37023C8.34833 0.765588 9.64816 0.765588 10.4397 2.37023Z" stroke="#181818" stroke-width="1.28125" stroke-linecap="round" stroke-linejoin="round"/>
</svg>
