<svg width="35" height="31" viewBox="0 0 35 31" fill="none" xmlns="http://www.w3.org/2000/svg">
<path d="M9.87371 13.1021L10.7713 11.0078C15.5583 16.7522 22.5394 17.3905 25.4315 16.9916L24.5339 19.0859C24.3345 19.784 22.4995 20.7614 16.7551 19.0859C11.0106 17.4104 9.77398 14.3986 9.87371 13.1021Z" fill="#767676"/>
<path d="M9.8439 13.0642L11.0971 10.1882C9.75882 9.48981 7.88046 7.89807 7.10857 7.1895L6.44255 6.89929C5.93517 6.90634 4.74629 7.32006 4.04978 8.9185C2.70663 12.3316 4.13041 19.9763 13.9259 24.2806C23.7213 28.5849 30.5977 22.972 31.4777 20.8699C32.1816 19.1883 31.5497 18.0316 31.1458 17.6635L30.5403 17.3997C29.3289 17.5346 26.8417 16.9047 25.7495 16.5729L24.4963 19.4489C24.031 20.1586 21.7482 21.0106 16.3399 18.7405C10.9317 16.4703 9.7558 14.0104 9.8439 13.0642Z" fill="black"/>
<path d="M18.319 5.51841L17.2897 5.0699C15.4556 5.06316 12.6212 7.68244 11.4649 9.59204C10.3086 11.5017 11.5935 13.4303 18.0037 16.0795C24.414 18.7286 25.62 17.2008 25.9357 15.8976C27.0962 10.4236 25.4333 8.6184 25.3122 8.56563L24.071 8.02478C23.6593 7.84538 22.2203 7.89075 21.5522 7.93585C21.3007 7.93433 20.7367 7.83987 20.4927 7.47415C20.1875 7.01701 18.5612 5.62394 18.319 5.51841Z" fill="black"/>
<path d="M9.8439 13.0642L11.0971 10.1882C9.75882 9.48981 7.88046 7.89807 7.10857 7.1895L6.44255 6.89929C5.93517 6.90634 4.74629 7.32006 4.04978 8.9185C2.70663 12.3316 4.13041 19.9763 13.9259 24.2806C23.7213 28.5849 30.5977 22.972 31.4777 20.8699C32.1816 19.1883 31.5497 18.0316 31.1458 17.6635L30.5403 17.3997C29.3289 17.5346 26.8417 16.9047 25.7495 16.5729L24.4963 19.4489C24.031 20.1586 21.7482 21.0106 16.3399 18.7405C10.9317 16.4703 9.7558 14.0104 9.8439 13.0642Z" stroke="#767676" stroke-width="0.5" stroke-linecap="round" stroke-linejoin="round"/>
<path d="M18.319 5.51841L17.2897 5.0699C15.4556 5.06316 12.6212 7.68244 11.4649 9.59204C10.3086 11.5017 11.5935 13.4303 18.0037 16.0795C24.414 18.7286 25.62 17.2008 25.9357 15.8976C27.0962 10.4236 25.4333 8.6184 25.3122 8.56563L24.071 8.02478C23.6593 7.84538 22.2203 7.89075 21.5522 7.93585C21.3007 7.93433 20.7367 7.83987 20.4927 7.47415C20.1875 7.01701 18.5612 5.62394 18.319 5.51841Z" stroke="#767676" stroke-width="0.5" stroke-linecap="round" stroke-linejoin="round"/>
</svg>
