<svg width="18" height="15" viewBox="0 0 18 15" fill="none" xmlns="http://www.w3.org/2000/svg">
<path d="M4.94936 2.32324C4.93262 1.99673 4.99274 1.74453 5.15624 1.53222C5.56236 1.00488 6.38963 1.00488 8.04417 1.00488H9.84915C11.5036 1.00488 12.3309 1.00488 12.7371 1.53222C12.9005 1.74453 12.9607 1.99673 12.944 2.32324" stroke="black" stroke-linecap="round" stroke-linejoin="round"/>
<path d="M2.81335 4.01074C2.84699 3.78255 2.92427 3.58529 3.05307 3.40808C3.57329 2.69238 4.65167 2.69238 6.80842 2.69238H11.2628C13.4195 2.69238 14.4979 2.69238 15.0181 3.40808C15.1469 3.58529 15.2242 3.78255 15.2578 4.01074" stroke="black" stroke-linecap="round" stroke-linejoin="round"/>
<path d="M1.72669 8.90893L2.3657 10.9332C3.16172 13.455 3.84204 13.9953 6.52025 13.9953H11.4797C14.158 13.9953 14.8383 13.455 15.6343 10.9332L16.2734 8.90893C16.9343 6.81495 17.2648 5.76791 16.7423 5.04765C16.2198 4.32739 15.1298 4.32739 12.9497 4.32739H5.05033C2.87022 4.32739 1.78018 4.32739 1.25767 5.04765C0.735173 5.76791 1.06568 6.81495 1.72669 8.90893Z" fill="#717171" stroke="black" stroke-linecap="round" stroke-linejoin="round"/>
<path d="M11.6667 7.40308C11.6667 8.37391 10.8708 9.16088 9.88893 9.16088H8.11115C7.12931 9.16088 6.33337 8.37391 6.33337 7.40308" stroke="white" stroke-linecap="round"/>
</svg>
