<svg width="371" height="436" viewBox="0 0 371 436" fill="none" xmlns="http://www.w3.org/2000/svg">
<g filter="url(#filter0_ddddd_47_243)">
<path d="M53.4466 301.853C54.1206 301.897 54.7734 301.89 55.385 301.831C55.9694 309.095 62.1059 311.492 67.658 310.593C73.21 309.694 77.0088 307.672 80.4423 309.395C83.1891 310.773 85.483 309.42 86.2865 308.571C87.8937 312.166 94.2494 309.769 95.5643 305.576C98.4864 304.752 98.4864 299.959 97.0984 298.237C97.6098 296.514 97.6098 292.92 96.2218 292.246C96.514 291.122 96.514 288.052 94.2494 287.453C94.6146 286.554 93.2997 282.735 90.962 282.435C89.9392 278.092 84.7524 275.845 82.853 276.894C82.1225 275.021 78.2507 274.273 77.0088 275.246C76.2782 273.748 73.3561 272.4 70.6531 273.748C68.9729 272.325 63.64 273.074 62.4712 274.797C61.4484 273.748 56.1155 274.647 55.385 277.493C53.2665 276.444 47.9336 278.841 47.9336 282.735C44.7192 283.933 44.5488 287.627 44.8653 289.325C39.3333 296.832 47.2784 301.455 53.4466 301.853ZM53.4466 301.853C54.93 300.083 57.7519 297.562 60.7519 296.723M66.304 297.713C64.5728 296.33 62.6276 296.198 60.7519 296.723M60.7519 296.723C61.9451 295.43 63.4111 291.872 59.7292 287.978M59.7292 287.978C56.2811 289.715 53.6658 287.953 52.7891 286.854M59.7292 287.978C60.3136 287.503 61.1318 285.926 59.7292 283.409M49.5017 287.528C48.9173 286.729 48.3183 285.042 50.5975 284.682M52.4239 292.695C52.2296 293.378 52.0688 294.642 52.3771 295.841M53.4466 297.713C52.8827 297.19 52.5533 296.526 52.3771 295.841M52.3771 295.841C50.3744 296.19 46.6449 295.886 47.7485 291.872M85.7362 299.211C84.9152 300.31 83.3453 301.946 81.426 303.074M64.3316 303.554C67.7572 302.932 69.4583 302.811 71.3447 303.097M71.3447 303.097C72.6363 303.293 74.0148 303.68 76.0931 304.228C77.9595 304.611 79.8158 304.021 81.426 303.074M71.3447 303.097C72.1726 302.001 72.9518 299.121 69.4453 296.365M65.4664 291.347L69.2261 292.92M81.426 303.074C80.5981 301.986 79.0591 299.001 79.5266 295.766M82.3757 295.316C83.2637 295.067 84.5799 293.714 82.741 290.299M86.4667 304.378C88.0495 304.802 91.1129 304.513 90.7038 299.96M68.2034 286.105C70.2245 286.155 74.0915 287.333 73.3902 291.647C72.5135 294.118 74.2668 296.14 75.8009 298.911M65.4664 309.171C63.7131 308.272 63.9793 306.649 64.3316 305.951C63.4549 306.525 61.3071 307.328 59.7292 305.951C58.1512 304.573 58.4386 302.98 58.7795 302.356M78.2847 284.158C78.4898 284.9 79.1568 285.89 80.4423 285.772M82.741 284.682C81.8204 285.402 81.06 285.715 80.4423 285.772M80.4423 285.772C80.7458 287.53 80.4179 291.108 76.6776 291.347M86.0284 292.695L88.1469 295.017C89.194 293.17 90.3239 288.696 86.4667 285.581M71.5638 279.141C73.2441 278.542 77.2766 278.257 79.965 281.912M68.6417 281.238C67.8381 280.514 65.9533 279.875 64.8429 283.11M57.3184 280.788C58.1951 278.841 60.9273 275.621 64.8429 278.317M65.4664 315.086H77.0088C77.8124 315.086 79.1273 315.281 79.1273 317.258C79.1273 319.235 77.8124 319.355 77.0088 319.355H65.4664C64.5897 319.355 63.3624 318.846 63.4209 317.108C63.4793 315.371 64.8576 315.086 65.4664 315.086ZM65.4664 320.478H77.0088C77.8124 320.478 79.1273 320.673 79.1273 322.65C79.1273 324.627 77.8124 324.747 77.0088 324.747H65.4664C64.5897 324.747 63.3624 324.238 63.4209 322.5C63.4793 320.763 64.8576 320.478 65.4664 320.478ZM66.6352 325.87H76.4244C76.4731 326.544 76.2198 327.907 74.8172 327.967C73.4146 328.027 70.1174 327.992 68.4616 327.967C67.4388 327.952 66.6352 327.068 66.6352 325.87Z" stroke="#E9F0E4" stroke-width="2" stroke-linecap="round"/>
</g>
<defs>
<filter id="filter0_ddddd_47_243" x="-229.035" y="0.964874" width="599.07" height="599.07" filterUnits="userSpaceOnUse" color-interpolation-filters="sRGB">
<feFlood flood-opacity="0" result="BackgroundImageFix"/>
<feColorMatrix in="SourceAlpha" type="matrix" values="0 0 0 0 0 0 0 0 0 0 0 0 0 0 0 0 0 0 127 0" result="hardAlpha"/>
<feOffset/>
<feGaussianBlur stdDeviation="5.64657"/>
<feColorMatrix type="matrix" values="0 0 0 0 0.171167 0 0 0 0 0.658333 0 0 0 0 0 0 0 0 1 0"/>
<feBlend mode="normal" in2="BackgroundImageFix" result="effect1_dropShadow_47_243"/>
<feColorMatrix in="SourceAlpha" type="matrix" values="0 0 0 0 0 0 0 0 0 0 0 0 0 0 0 0 0 0 127 0" result="hardAlpha"/>
<feOffset/>
<feGaussianBlur stdDeviation="11.2931"/>
<feColorMatrix type="matrix" values="0 0 0 0 0.172549 0 0 0 0 0.658824 0 0 0 0 0 0 0 0 1 0"/>
<feBlend mode="normal" in2="effect1_dropShadow_47_243" result="effect2_dropShadow_47_243"/>
<feColorMatrix in="SourceAlpha" type="matrix" values="0 0 0 0 0 0 0 0 0 0 0 0 0 0 0 0 0 0 127 0" result="hardAlpha"/>
<feOffset/>
<feGaussianBlur stdDeviation="39.526"/>
<feColorMatrix type="matrix" values="0 0 0 0 0.541176 0 0 0 0 0.654902 0 0 0 0 0.486275 0 0 0 1 0"/>
<feBlend mode="normal" in2="effect2_dropShadow_47_243" result="effect3_dropShadow_47_243"/>
<feColorMatrix in="SourceAlpha" type="matrix" values="0 0 0 0 0 0 0 0 0 0 0 0 0 0 0 0 0 0 127 0" result="hardAlpha"/>
<feOffset/>
<feGaussianBlur stdDeviation="79.0519"/>
<feColorMatrix type="matrix" values="0 0 0 0 0.71986 0 0 0 0 0.845833 0 0 0 0 0.659045 0 0 0 1 0"/>
<feBlend mode="normal" in2="effect3_dropShadow_47_243" result="effect4_dropShadow_47_243"/>
<feColorMatrix in="SourceAlpha" type="matrix" values="0 0 0 0 0 0 0 0 0 0 0 0 0 0 0 0 0 0 127 0" result="hardAlpha"/>
<feOffset/>
<feGaussianBlur stdDeviation="135.518"/>
<feColorMatrix type="matrix" values="0 0 0 0 0.746339 0 0 0 0 0.891667 0 0 0 0 0.676181 0 0 0 1 0"/>
<feBlend mode="normal" in2="effect4_dropShadow_47_243" result="effect5_dropShadow_47_243"/>
<feBlend mode="normal" in="SourceGraphic" in2="effect5_dropShadow_47_243" result="shape"/>
</filter>
</defs>
</svg>
