<svg width="16" height="16" viewBox="0 0 16 16" fill="none" xmlns="http://www.w3.org/2000/svg">
<path d="M1.6665 8.00008C1.6665 5.01452 1.6665 3.52174 2.594 2.59424C3.5215 1.66675 5.01428 1.66675 7.99982 1.66675C10.9854 1.66675 12.4782 1.66675 13.4057 2.59424C14.3332 3.52174 14.3332 5.01452 14.3332 8.00008C14.3332 10.9856 14.3332 12.4784 13.4057 13.4059C12.4782 14.3334 10.9854 14.3334 7.99982 14.3334C5.01428 14.3334 3.5215 14.3334 2.594 13.4059C1.6665 12.4784 1.6665 10.9856 1.6665 8.00008Z" stroke="white" stroke-width="1.5" stroke-linecap="round" stroke-linejoin="round"/>
<path d="M4.6665 11.3334L7.46222 8.53775M7.46222 8.53775L4.6665 4.66675H6.51836L8.53749 7.46241M7.46222 8.53775L9.48129 11.3334H11.3332L8.53749 7.46241M11.3332 4.66675L8.53749 7.46241" stroke="white" stroke-width="1.5" stroke-linecap="round" stroke-linejoin="round"/>
</svg>
